<svg xmlns="http://www.w3.org/2000/svg" viewBox="0 0 30 30" height="30" width="30"><title>bar.svg</title><rect fill="none" x="0" y="0" width="30" height="30"></rect><rect x="1" y="1" width="27" height="27" rx="15" ry="15" fill="rgba(0,0,0,0.14)"></rect><path fill="#4dffd5" transform="translate(7 7)" d="M7.5,1c-2,0-7,0.25-6.5,0.75L7,8v4
	c0,1-3,0.5-3,2h7c0-1.5-3-1-3-2V8l6-6.25C14.5,1.25,9.5,1,7.5,1z M7.5,2c2.5,0,4.75,0.25,4.75,0.25L11.5,3h-8L2.75,2.25
	C2.75,2.25,5,2,7.5,2z" style="stroke-linejoin:round;stroke-miterlimit:4;" stroke="#4dffd5" stroke-width="3"></path><path fill="#154515" transform="translate(7 7)" d="M7.5,1c-2,0-7,0.25-6.5,0.75L7,8v4
	c0,1-3,0.5-3,2h7c0-1.5-3-1-3-2V8l6-6.25C14.5,1.25,9.5,1,7.5,1z M7.5,2c2.5,0,4.75,0.25,4.75,0.25L11.5,3h-8L2.75,2.25
	C2.75,2.25,5,2,7.5,2z"></path></svg>