<svg xmlns="http://www.w3.org/2000/svg" viewBox="0 0 30 30" height="30" width="30"><title>heart.svg</title><rect fill="none" x="0" y="0" width="30" height="30"></rect><rect x="1" y="1" width="27" height="27" rx="15" ry="15" fill="rgba(0,0,0,0.14)"></rect><path fill="#4dffd5" transform="translate(7 7)" d="M13.91,6.75c-1.17,2.25-4.3,5.31-6.07,6.94c-0.1903,0.1718-0.4797,0.1718-0.67,0C5.39,12.06,2.26,9,1.09,6.75
	C-1.48,1.8,5-1.5,7.5,3.45C10-1.5,16.48,1.8,13.91,6.75z" style="stroke-linejoin:round;stroke-miterlimit:4;" stroke="#4dffd5" stroke-width="3"></path><path fill="#154515" transform="translate(7 7)" d="M13.91,6.75c-1.17,2.25-4.3,5.31-6.07,6.94c-0.1903,0.1718-0.4797,0.1718-0.67,0C5.39,12.06,2.26,9,1.09,6.75
	C-1.48,1.8,5-1.5,7.5,3.45C10-1.5,16.48,1.8,13.91,6.75z"></path></svg>