<svg xmlns="http://www.w3.org/2000/svg" viewBox="0 0 30 30" height="30" width="30"><title>marker.svg</title><rect fill="none" x="0" y="0" width="30" height="30"></rect><rect x="1" y="1" width="27" height="27" rx="15" ry="15" fill="rgba(0,0,0,0.14)"></rect><path fill="#4dffd5" transform="translate(7 7)" d="M7.5,0C5.0676,0,2.2297,1.4865,2.2297,5.2703
	C2.2297,7.8378,6.2838,13.5135,7.5,15c1.0811-1.4865,5.2703-7.027,5.2703-9.7297C12.7703,1.4865,9.9324,0,7.5,0z" style="stroke-linejoin:round;stroke-miterlimit:4;" stroke="#4dffd5" stroke-width="3"></path><path fill="#154515" transform="translate(7 7)" d="M7.5,0C5.0676,0,2.2297,1.4865,2.2297,5.2703
	C2.2297,7.8378,6.2838,13.5135,7.5,15c1.0811-1.4865,5.2703-7.027,5.2703-9.7297C12.7703,1.4865,9.9324,0,7.5,0z"></path></svg>