<svg xmlns="http://www.w3.org/2000/svg" viewBox="0 0 30 30" height="30" width="30"><title>museum.svg</title><rect fill="none" x="0" y="0" width="30" height="30"></rect><rect x="1" y="1" width="27" height="27" rx="15" ry="15" fill="rgba(0,0,0,0.14)"></rect><path fill="#4dffd5" transform="translate(7 7)" d="M7.5,0L1,3.5V4h13V3.5L7.5,0z M2,5v5l-1,1.6V13h13v-1.4L13,10V5H2z M4,6h1v5.5H4V6z M7,6h1v5.5H7V6z M10,6h1
	v5.5h-1V6z" style="stroke-linejoin:round;stroke-miterlimit:4;" stroke="#4dffd5" stroke-width="3"></path><path fill="#154515" transform="translate(7 7)" d="M7.5,0L1,3.5V4h13V3.5L7.5,0z M2,5v5l-1,1.6V13h13v-1.4L13,10V5H2z M4,6h1v5.5H4V6z M7,6h1v5.5H7V6z M10,6h1
	v5.5h-1V6z"></path></svg>