<svg xmlns="http://www.w3.org/2000/svg" viewBox="0 0 28 28" height="28" width="28"><title>heart.svg</title><rect fill="none" x="0" y="0" width="28" height="28"></rect><rect x="2" y="2" width="24.5" height="24.5" rx="14.25" ry="14.25" fill="rgba(0,0,0,0.1)"></rect><path fill="#60f0f0" transform="translate(6 6)" d="M13.91,6.75c-1.17,2.25-4.3,5.31-6.07,6.94c-0.1903,0.1718-0.4797,0.1718-0.67,0C5.39,12.06,2.26,9,1.09,6.75
	C-1.48,1.8,5-1.5,7.5,3.45C10-1.5,16.48,1.8,13.91,6.75z" style="stroke-linejoin:round;stroke-miterlimit:4;" stroke="#60f0f0" stroke-width="4"></path><path fill="#1b591e" transform="translate(6 6)" d="M13.91,6.75c-1.17,2.25-4.3,5.31-6.07,6.94c-0.1903,0.1718-0.4797,0.1718-0.67,0C5.39,12.06,2.26,9,1.09,6.75
	C-1.48,1.8,5-1.5,7.5,3.45C10-1.5,16.48,1.8,13.91,6.75z"></path></svg>